<svg width="100" height="31" viewBox="0 0 100 31" fill="none" xmlns="http://www.w3.org/2000/svg">
<g clip-path="url(#clip0)">
<path fill-rule="evenodd" clip-rule="evenodd" d="M43.9535 9.49478C42.9868 9.49478 41.8393 9.69974 40.5859 11.153V7.08591C40.5859 6.05845 39.752 5.22266 38.7269 5.22266C37.7018 5.22266 36.8679 6.05845 36.8679 7.08591V20.3494C36.8679 21.3768 37.7018 22.2126 38.7269 22.2126C39.752 22.2126 40.5859 21.3768 40.5859 20.3494V15.2016C40.5859 13.7217 41.287 12.9045 42.5643 12.9045C43.8151 12.9045 44.4739 13.6977 44.4739 15.2016V20.3494C44.4739 21.3768 45.3076 22.2126 46.333 22.2126C47.358 22.2126 48.1918 21.3768 48.1918 20.3494V14.1209C48.1893 11.2249 46.6064 9.49478 43.9535 9.49478ZM54.6297 9.58532C53.116 9.58532 51.9155 9.78228 50.7389 10.2242C50.128 10.4531 49.7193 11.0439 49.7193 11.6934C49.7193 12.5612 50.4072 13.2399 51.286 13.2399C51.4668 13.2399 51.618 13.2133 51.8251 13.1441C52.5397 12.9205 53.2939 12.814 54.1355 12.814C56.1326 12.814 56.5576 13.9187 56.5631 14.8529C55.8697 14.6267 54.996 14.4191 53.7772 14.4191C50.601 14.4191 48.7789 15.875 48.7789 18.417V18.4623C48.7789 20.7594 50.5001 22.3032 53.0601 22.3032C54.5022 22.3032 55.6576 21.864 56.5789 20.9643C56.7355 21.6218 57.3651 22.2153 58.3318 22.2153C59.3489 22.2153 60.1455 21.4274 60.1455 20.4213V14.9301C60.1455 13.2027 59.6943 11.8718 58.7993 10.9774C57.8751 10.0538 56.4726 9.58532 54.6297 9.58532ZM54.0905 19.6334C53.0364 19.6334 52.383 19.133 52.383 18.3265V18.2813C52.383 17.3204 53.1851 16.7721 54.5847 16.7721C55.3014 16.7721 56.016 16.9131 56.608 17.1687V17.677C56.608 18.8269 55.5726 19.6334 54.0905 19.6334ZM65.1276 11.1852C66.0889 10.0486 67.2735 9.49491 68.7393 9.49491C71.536 9.49491 74.3643 11.6855 74.3643 15.8752V15.9204C74.3643 17.8502 73.7722 19.4845 72.6539 20.6503C71.6314 21.7177 70.2426 22.3033 68.7393 22.3033C67.2922 22.3033 66.1422 21.8082 65.1464 20.7542V23.9482C65.1464 24.9757 64.3122 25.8114 63.2872 25.8114C62.2622 25.8114 61.428 24.9757 61.428 23.9482V11.4487C61.428 10.4212 62.2622 9.58541 63.2872 9.58541C64.2247 9.58541 65.0001 10.2828 65.1276 11.1852ZM70.6489 15.8752C70.6489 14.0678 69.4514 12.7023 67.863 12.7023C66.2643 12.7023 65.101 14.0359 65.101 15.8752V15.9204C65.101 17.7597 66.2618 19.0932 67.863 19.0932C69.4776 19.0932 70.6489 17.7597 70.6489 15.9204V15.8752ZM82.5335 9.49491C81.0672 9.49491 79.883 10.0486 78.9214 11.1852C78.7939 10.2828 78.0185 9.58541 77.081 9.58541C76.056 9.58541 75.2222 10.4212 75.2222 11.4487V23.9482C75.2222 24.9757 76.056 25.8114 77.081 25.8114C78.1064 25.8114 78.9401 24.9757 78.9401 23.9482V20.7542C79.936 21.8082 81.086 22.3033 82.5335 22.3033C84.0364 22.3033 85.4256 21.7177 86.4481 20.6503C87.566 19.4845 88.158 17.8502 88.158 15.9204V15.8752C88.158 11.6855 85.3297 9.49491 82.5335 9.49491ZM81.6568 12.7023C83.2451 12.7023 84.4426 14.0678 84.4426 15.8752V15.9204C84.4426 17.7597 83.2718 19.0932 81.6568 19.0932C80.0555 19.0932 78.8951 17.7597 78.8951 15.9204V15.8752C78.8951 14.0359 80.058 12.7023 81.6568 12.7023ZM96.4522 10.9908C96.7972 10.0698 97.4135 9.58536 98.2339 9.58536C99.2247 9.58536 100.003 10.3439 100 11.3075C100 11.587 99.9097 11.9916 99.8301 12.1779L95.6368 22.2713C94.5826 24.8292 93.4831 25.7369 91.4356 25.7369C90.7131 25.7369 90.158 25.641 89.5205 25.4122C89.0822 25.2524 88.3443 24.8372 88.3443 23.8524C88.3443 22.8835 89.1064 22.3059 89.8418 22.3059C90.1339 22.3059 90.3093 22.3564 90.4501 22.4044C90.7397 22.4949 90.8989 22.5321 91.1193 22.5321C91.6772 22.5321 91.911 22.4416 92.1922 21.9013L92.2772 21.699L88.1981 12.2258C88.1051 11.9916 88.0068 11.6296 88.0068 11.3767C88.0068 10.3546 88.7955 9.5827 89.8418 9.5827C90.7051 9.5827 91.2893 10.0352 91.6239 10.9668L94.0805 17.5866L96.4522 10.9908Z" fill="white"/>
<path d="M26.6558 7.82442V18.7116C26.6558 23.0327 23.1391 26.536 18.8015 26.536H18.0071L13.9502 30.5748C13.7913 30.7331 13.5715 30.8333 13.3279 30.8333C13.1028 30.8333 12.8989 30.7515 12.7427 30.6144L12.6738 30.5458L12.6712 30.5432L8.64871 26.536H7.85163C3.51668 26.536 0 23.0327 0 18.7116V7.82442C0 3.50331 3.51668 0 7.85429 0H18.8015C23.1391 0 26.6558 3.50331 26.6558 7.82442Z" fill="#FFD666"/>
<path d="M6.20627 15.082C5.43302 15.082 4.99227 15.9598 5.44093 16.5936C7.18539 19.0625 10.0699 20.6722 13.3292 20.6722C16.5885 20.6722 19.4704 19.0598 21.2148 16.5936C21.6635 15.9598 21.2227 15.082 20.4495 15.082H6.20627Z" fill="white"/>
<path d="M10.735 11.3467H6.06909V9.00245C6.06909 7.70833 7.11418 6.6582 8.40205 6.6582C9.68993 6.6582 10.735 7.70833 10.735 9.00245V11.3467Z" fill="white"/>
<path d="M20.5895 11.3467H15.9236V9.00245C15.9236 7.70833 16.9687 6.6582 18.2565 6.6582C19.5444 6.6582 20.5895 7.70833 20.5895 9.00245V11.3467Z" fill="white"/>
</g>
<defs>
<clipPath id="clip0">
<rect width="100" height="30.8333" fill="white"/>
</clipPath>
</defs>
</svg>
